G04 (created by PCBNEW (2013-07-07 BZR 4022)-stable) date 12/30/2013 12:35:19 AM*
%MOIN*%
G04 Gerber Fmt 3.4, Leading zero omitted, Abs format*
%FSLAX34Y34*%
G01*
G70*
G90*
G04 APERTURE LIST*
%ADD10C,0.00590551*%
%ADD11C,0.16*%
%ADD12O,0.0866X0.06*%
%ADD13C,0.074*%
%ADD14O,0.0514X0.1029*%
%ADD15R,0.06X0.06*%
%ADD16C,0.06*%
%ADD17O,0.0591X0.0787*%
%ADD18C,0.1378*%
%ADD19C,0.055*%
%ADD20C,0.05*%
%ADD21C,0.137795*%
%ADD22O,0.06X0.0866*%
%ADD23C,0.035*%
%ADD24C,0.01*%
G04 APERTURE END LIST*
G54D10*
G54D11*
X111811Y-71456D03*
G54D12*
X89566Y-61098D03*
X89566Y-62098D03*
X89566Y-63098D03*
X89566Y-64098D03*
G54D13*
X100984Y-68291D03*
X100984Y-69291D03*
X100984Y-70291D03*
X110089Y-67850D03*
X110089Y-71850D03*
X109989Y-66850D03*
X109989Y-70850D03*
X110089Y-69850D03*
X109989Y-68850D03*
G54D14*
X88925Y-72291D03*
X89925Y-72291D03*
X90925Y-72291D03*
X91925Y-72291D03*
X92925Y-72291D03*
X93925Y-72291D03*
X94925Y-72291D03*
X95925Y-72291D03*
X96925Y-72291D03*
X97925Y-72291D03*
X98925Y-72291D03*
X99925Y-72291D03*
X100925Y-72291D03*
X101925Y-72291D03*
X102925Y-72291D03*
X103925Y-72291D03*
X104925Y-72291D03*
X105925Y-72291D03*
X106925Y-72291D03*
X107925Y-72291D03*
X107925Y-66291D03*
X106925Y-66291D03*
X105925Y-66291D03*
X104925Y-66291D03*
X103925Y-66291D03*
X102925Y-66291D03*
X101925Y-66291D03*
X100925Y-66291D03*
X99925Y-66291D03*
X98925Y-66291D03*
X97925Y-66291D03*
X96925Y-66291D03*
X95925Y-66291D03*
X94925Y-66291D03*
X93925Y-66291D03*
X92925Y-66291D03*
X91925Y-66291D03*
X90925Y-66291D03*
X89925Y-66291D03*
X88925Y-66291D03*
G54D15*
X109039Y-55864D03*
G54D16*
X109039Y-54764D03*
X110039Y-55764D03*
X110039Y-54864D03*
X111039Y-55864D03*
X111039Y-54764D03*
G54D17*
X109055Y-62992D03*
X110039Y-62992D03*
X111023Y-62992D03*
G54D18*
X107598Y-60039D03*
X112480Y-60039D03*
G54D17*
X109055Y-57283D03*
X111023Y-57283D03*
G54D19*
X96562Y-69291D03*
X95562Y-69291D03*
X93200Y-69291D03*
X94200Y-69291D03*
G54D20*
X107086Y-70393D03*
X107086Y-68582D03*
G54D21*
X104921Y-64370D03*
G54D22*
X94925Y-55511D03*
X95925Y-55511D03*
X96925Y-55511D03*
X97925Y-55511D03*
X98925Y-55511D03*
X99925Y-55511D03*
X100925Y-55511D03*
X101925Y-55511D03*
G54D21*
X91929Y-64370D03*
G54D13*
X90260Y-57184D03*
X90260Y-59744D03*
X88480Y-57184D03*
X88480Y-59744D03*
G54D11*
X89370Y-55511D03*
G54D23*
X104841Y-70295D03*
X103589Y-59776D03*
G54D24*
X100925Y-55561D02*
X100475Y-55561D01*
X89516Y-61098D02*
X90150Y-61098D01*
X93348Y-61098D02*
X90150Y-61098D01*
X93348Y-61098D02*
X93348Y-61098D01*
X95135Y-61098D02*
X93348Y-61098D01*
X100475Y-55758D02*
X95135Y-61098D01*
X100475Y-55561D02*
X100475Y-55758D01*
X93348Y-69143D02*
X93200Y-69291D01*
X93348Y-61098D02*
X93348Y-69143D01*
X88480Y-59744D02*
X88480Y-57184D01*
X104925Y-70379D02*
X104841Y-70295D01*
X104925Y-72291D02*
X104925Y-70379D01*
X102925Y-72291D02*
X102925Y-71626D01*
X109989Y-70723D02*
X109989Y-70850D01*
X111023Y-69689D02*
X109989Y-70723D01*
X111023Y-62992D02*
X111023Y-69689D01*
X109218Y-69953D02*
X109989Y-70723D01*
X104598Y-69953D02*
X109218Y-69953D01*
X102925Y-71626D02*
X104598Y-69953D01*
X91490Y-71626D02*
X90925Y-71626D01*
X93700Y-69416D02*
X91490Y-71626D01*
X93700Y-69174D02*
X93700Y-69416D01*
X95918Y-66956D02*
X93700Y-69174D01*
X97107Y-66956D02*
X95918Y-66956D01*
X97425Y-66638D02*
X97107Y-66956D01*
X97425Y-65940D02*
X97425Y-66638D01*
X103589Y-59776D02*
X97425Y-65940D01*
X90925Y-72291D02*
X90925Y-71626D01*
X110039Y-66800D02*
X109989Y-66850D01*
X110039Y-62992D02*
X110039Y-66800D01*
X97925Y-66291D02*
X97925Y-66905D01*
X95678Y-67813D02*
X94200Y-69291D01*
X97017Y-67813D02*
X95678Y-67813D01*
X97925Y-66905D02*
X97017Y-67813D01*
X110089Y-66950D02*
X110089Y-67850D01*
X109989Y-66850D02*
X110089Y-66950D01*
X98925Y-69614D02*
X98925Y-72291D01*
X100773Y-67766D02*
X98925Y-69614D01*
X101195Y-67766D02*
X100773Y-67766D01*
X101524Y-68094D02*
X101195Y-67766D01*
X101524Y-68982D02*
X101524Y-68094D01*
X108956Y-68982D02*
X101524Y-68982D01*
X110089Y-67850D02*
X108956Y-68982D01*
X101292Y-68982D02*
X100984Y-69291D01*
X101524Y-68982D02*
X101292Y-68982D01*
X89819Y-63648D02*
X89616Y-63648D01*
X90154Y-63312D02*
X89819Y-63648D01*
X90154Y-61895D02*
X90154Y-63312D01*
X89857Y-61598D02*
X90154Y-61895D01*
X89282Y-61598D02*
X89857Y-61598D01*
X88972Y-61288D02*
X89282Y-61598D01*
X88972Y-60890D02*
X88972Y-61288D01*
X90118Y-59744D02*
X88972Y-60890D01*
X90260Y-59744D02*
X90118Y-59744D01*
X89616Y-64098D02*
X89616Y-63648D01*
X99425Y-67791D02*
X94925Y-72291D01*
X99425Y-65929D02*
X99425Y-67791D01*
X109039Y-56315D02*
X99425Y-65929D01*
X109039Y-55864D02*
X109039Y-56315D01*
X93925Y-72291D02*
X93925Y-71626D01*
X109518Y-55385D02*
X110039Y-54864D01*
X108696Y-55385D02*
X109518Y-55385D01*
X98484Y-65597D02*
X108696Y-55385D01*
X98484Y-67979D02*
X98484Y-65597D01*
X94837Y-71626D02*
X98484Y-67979D01*
X93925Y-71626D02*
X94837Y-71626D01*
X89339Y-62548D02*
X89616Y-62548D01*
X88518Y-63370D02*
X89339Y-62548D01*
X88518Y-71219D02*
X88518Y-63370D01*
X88925Y-71626D02*
X88518Y-71219D01*
X88925Y-72291D02*
X88925Y-71626D01*
X89616Y-62098D02*
X89616Y-62548D01*
X88973Y-63641D02*
X89516Y-63098D01*
X88973Y-64309D02*
X88973Y-63641D01*
X89518Y-64853D02*
X88973Y-64309D01*
X89518Y-71219D02*
X89518Y-64853D01*
X89925Y-71626D02*
X89518Y-71219D01*
X89925Y-72291D02*
X89925Y-71626D01*
X107925Y-66291D02*
X107925Y-65626D01*
X109513Y-64038D02*
X107925Y-65626D01*
X109513Y-58044D02*
X109513Y-64038D01*
X111039Y-56518D02*
X109513Y-58044D01*
X111039Y-55864D02*
X111039Y-56518D01*
X110572Y-55398D02*
X111039Y-55864D01*
X110572Y-54748D02*
X110572Y-55398D01*
X110116Y-54292D02*
X110572Y-54748D01*
X99347Y-54292D02*
X110116Y-54292D01*
X98375Y-55264D02*
X99347Y-54292D01*
X98375Y-55461D02*
X98375Y-55264D01*
X97925Y-55461D02*
X98375Y-55461D01*
X96925Y-71310D02*
X96925Y-72291D01*
X100670Y-67566D02*
X96925Y-71310D01*
X106069Y-67566D02*
X100670Y-67566D01*
X107086Y-68582D02*
X106069Y-67566D01*
X100496Y-67055D02*
X95925Y-71626D01*
X100496Y-65881D02*
X100496Y-67055D01*
X107738Y-58639D02*
X100496Y-65881D01*
X108441Y-58639D02*
X107738Y-58639D01*
X110039Y-57041D02*
X108441Y-58639D01*
X110039Y-55764D02*
X110039Y-57041D01*
X95925Y-72291D02*
X95925Y-71626D01*
X100984Y-71567D02*
X100984Y-70291D01*
X100925Y-71626D02*
X100984Y-71567D01*
X100925Y-72291D02*
X100925Y-71626D01*
X99925Y-69350D02*
X100984Y-68291D01*
X99925Y-72291D02*
X99925Y-69350D01*
X109976Y-69737D02*
X110089Y-69850D01*
X103814Y-69737D02*
X109976Y-69737D01*
X101925Y-71626D02*
X103814Y-69737D01*
X101925Y-72291D02*
X101925Y-71626D01*
M02*
