G04 (created by PCBNEW (2013-07-07 BZR 4022)-stable) date 12/30/2013 12:35:19 AM*
%MOIN*%
G04 Gerber Fmt 3.4, Leading zero omitted, Abs format*
%FSLAX34Y34*%
G01*
G70*
G90*
G04 APERTURE LIST*
%ADD10C,0.00590551*%
%ADD11C,0.0035*%
G04 APERTURE END LIST*
G54D10*
G54D11*
X89409Y-70547D02*
X89249Y-70547D01*
X89394Y-70379D02*
X89402Y-70387D01*
X89409Y-70410D01*
X89409Y-70425D01*
X89402Y-70448D01*
X89387Y-70463D01*
X89371Y-70471D01*
X89341Y-70478D01*
X89318Y-70478D01*
X89288Y-70471D01*
X89272Y-70463D01*
X89257Y-70448D01*
X89249Y-70425D01*
X89249Y-70410D01*
X89257Y-70387D01*
X89265Y-70379D01*
X89409Y-70227D02*
X89409Y-70318D01*
X89409Y-70273D02*
X89249Y-70273D01*
X89272Y-70288D01*
X89288Y-70303D01*
X89295Y-70318D01*
X107864Y-71285D02*
X107864Y-71209D01*
X107909Y-71300D02*
X107749Y-71247D01*
X107909Y-71194D01*
X107749Y-71163D02*
X107749Y-71072D01*
X107909Y-71117D02*
X107749Y-71117D01*
X107909Y-71018D02*
X107749Y-71018D01*
X107864Y-70965D01*
X107749Y-70912D01*
X107909Y-70912D01*
X107826Y-70836D02*
X107826Y-70782D01*
X107909Y-70759D02*
X107909Y-70836D01*
X107749Y-70836D01*
X107749Y-70759D01*
X107757Y-70607D02*
X107749Y-70622D01*
X107749Y-70645D01*
X107757Y-70668D01*
X107772Y-70683D01*
X107788Y-70691D01*
X107818Y-70698D01*
X107841Y-70698D01*
X107871Y-70691D01*
X107887Y-70683D01*
X107902Y-70668D01*
X107909Y-70645D01*
X107909Y-70630D01*
X107902Y-70607D01*
X107894Y-70599D01*
X107841Y-70599D01*
X107841Y-70630D01*
X107864Y-70538D02*
X107864Y-70462D01*
X107909Y-70554D02*
X107749Y-70500D01*
X107909Y-70447D01*
X107909Y-70310D02*
X107909Y-70401D01*
X107909Y-70356D02*
X107749Y-70356D01*
X107772Y-70371D01*
X107788Y-70386D01*
X107795Y-70401D01*
X107765Y-70249D02*
X107757Y-70241D01*
X107749Y-70226D01*
X107749Y-70188D01*
X107757Y-70173D01*
X107765Y-70165D01*
X107780Y-70157D01*
X107795Y-70157D01*
X107818Y-70165D01*
X107909Y-70257D01*
X107909Y-70157D01*
X107818Y-70066D02*
X107810Y-70081D01*
X107803Y-70089D01*
X107788Y-70097D01*
X107780Y-70097D01*
X107765Y-70089D01*
X107757Y-70081D01*
X107749Y-70066D01*
X107749Y-70036D01*
X107757Y-70020D01*
X107765Y-70013D01*
X107780Y-70005D01*
X107788Y-70005D01*
X107803Y-70013D01*
X107810Y-70020D01*
X107818Y-70036D01*
X107818Y-70066D01*
X107826Y-70081D01*
X107833Y-70089D01*
X107849Y-70097D01*
X107879Y-70097D01*
X107894Y-70089D01*
X107902Y-70081D01*
X107909Y-70066D01*
X107909Y-70036D01*
X107902Y-70020D01*
X107894Y-70013D01*
X107879Y-70005D01*
X107849Y-70005D01*
X107833Y-70013D01*
X107826Y-70020D01*
X107818Y-70036D01*
X107803Y-69868D02*
X107909Y-69868D01*
X107742Y-69906D02*
X107856Y-69944D01*
X107856Y-69845D01*
X107909Y-69784D02*
X107749Y-69784D01*
X107749Y-69723D01*
X107757Y-69708D01*
X107765Y-69700D01*
X107780Y-69693D01*
X107803Y-69693D01*
X107818Y-69700D01*
X107826Y-69708D01*
X107833Y-69723D01*
X107833Y-69784D01*
X107849Y-69624D02*
X107849Y-69502D01*
X107909Y-69426D02*
X107749Y-69426D01*
X107749Y-69365D01*
X107757Y-69350D01*
X107765Y-69342D01*
X107780Y-69335D01*
X107803Y-69335D01*
X107818Y-69342D01*
X107826Y-69350D01*
X107833Y-69365D01*
X107833Y-69426D01*
M02*
