M48
;DRILL file {Pcbnew (2013-07-07 BZR 4022)-stable} date 12/30/2013 12:36:28 AM
;FORMAT={-:-/ absolute / inch / decimal}
FMAT,2
INCH,TZ
T1C0.025
T2C0.031
T3C0.032
T4C0.039
T5C0.040
T6C0.087
T7C0.108
T8C0.120
%
G90
G05
M72
T1
X10.3589Y-5.9776
X10.4841Y-7.0295
X10.7087Y-6.8583
X10.7087Y-7.0394
T2
X8.8925Y-6.6291
X8.8925Y-7.2291
X8.9925Y-6.6291
X8.9925Y-7.2291
X9.0925Y-6.6291
X9.0925Y-7.2291
X9.1925Y-6.6291
X9.1925Y-7.2291
X9.2925Y-6.6291
X9.2925Y-7.2291
X9.3925Y-6.6291
X9.3925Y-7.2291
X9.4925Y-6.6291
X9.4925Y-7.2291
X9.5925Y-6.6291
X9.5925Y-7.2291
X9.6925Y-6.6291
X9.6925Y-7.2291
X9.7925Y-6.6291
X9.7925Y-7.2291
X9.8925Y-6.6291
X9.8925Y-7.2291
X9.9925Y-6.6291
X9.9925Y-7.2291
X10.0925Y-6.6291
X10.0925Y-7.2291
X10.0984Y-6.8291
X10.0984Y-6.9291
X10.0984Y-7.0291
X10.1925Y-6.6291
X10.1925Y-7.2291
X10.2925Y-6.6291
X10.2925Y-7.2291
X10.3925Y-6.6291
X10.3925Y-7.2291
X10.4925Y-6.6291
X10.4925Y-7.2291
X10.5925Y-6.6291
X10.5925Y-7.2291
X10.6925Y-6.6291
X10.6925Y-7.2291
X10.7925Y-6.6291
X10.7925Y-7.2291
T3
X9.3201Y-6.9291
X9.4201Y-6.9291
X9.5563Y-6.9291
X9.6563Y-6.9291
T4
X8.9517Y-6.1098
X8.9517Y-6.3098
X8.9617Y-6.2098
X8.9617Y-6.4098
X9.4925Y-5.5562
X9.5925Y-5.5462
X9.6925Y-5.5562
X9.7925Y-5.5462
X9.8925Y-5.5562
X9.9925Y-5.5462
X10.0925Y-5.5562
X10.1925Y-5.5462
X10.9039Y-5.4765
X10.9039Y-5.5865
X10.9055Y-5.7283
X10.9055Y-6.2992
X11.0039Y-5.4865
X11.0039Y-5.5765
X11.0039Y-6.2992
X11.1023Y-5.7283
X11.1023Y-6.2992
X11.1039Y-5.4765
X11.1039Y-5.5865
T5
X8.848Y-5.7185
X8.848Y-5.9745
X9.026Y-5.7185
X9.026Y-5.9745
X10.9989Y-6.685
X10.9989Y-6.885
X10.9989Y-7.085
X11.0089Y-6.785
X11.0089Y-6.985
X11.0089Y-7.185
T6
X10.7598Y-6.0039
X11.248Y-6.0039
T7
X9.1929Y-6.437
X10.4921Y-6.437
T8
X8.937Y-5.5512
X11.1811Y-7.1457
T0
M30
