G04 (created by PCBNEW (2013-07-07 BZR 4022)-stable) date 12/30/2013 12:35:19 AM*
%MOIN*%
G04 Gerber Fmt 3.4, Leading zero omitted, Abs format*
%FSLAX34Y34*%
G01*
G70*
G90*
G04 APERTURE LIST*
%ADD10C,0.00590551*%
%ADD11C,0.00738189*%
%ADD12C,0.015*%
%ADD13C,0.008*%
%ADD14C,0.0026*%
%ADD15C,0.006*%
%ADD16C,0.012*%
%ADD17C,0.004*%
%ADD18C,0.0035*%
%ADD19C,3.93701e-006*%
%ADD20C,4.72441e-006*%
G04 APERTURE END LIST*
G54D10*
G54D11*
X110116Y-72476D02*
X110088Y-72462D01*
X110046Y-72462D01*
X110004Y-72476D01*
X109976Y-72504D01*
X109962Y-72532D01*
X109947Y-72588D01*
X109947Y-72630D01*
X109962Y-72687D01*
X109976Y-72715D01*
X110004Y-72743D01*
X110046Y-72757D01*
X110074Y-72757D01*
X110116Y-72743D01*
X110130Y-72729D01*
X110130Y-72630D01*
X110074Y-72630D01*
X110060Y-66106D02*
X110102Y-66120D01*
X110116Y-66134D01*
X110130Y-66162D01*
X110130Y-66205D01*
X110116Y-66233D01*
X110102Y-66247D01*
X110074Y-66261D01*
X109962Y-66261D01*
X109962Y-65965D01*
X110060Y-65965D01*
X110088Y-65980D01*
X110102Y-65994D01*
X110116Y-66022D01*
X110116Y-66050D01*
X110102Y-66078D01*
X110088Y-66092D01*
X110060Y-66106D01*
X109962Y-66106D01*
X88357Y-63814D02*
X88329Y-63800D01*
X88287Y-63800D01*
X88245Y-63814D01*
X88217Y-63842D01*
X88203Y-63870D01*
X88188Y-63927D01*
X88188Y-63969D01*
X88203Y-64025D01*
X88217Y-64053D01*
X88245Y-64081D01*
X88287Y-64095D01*
X88315Y-64095D01*
X88357Y-64081D01*
X88371Y-64067D01*
X88371Y-63969D01*
X88315Y-63969D01*
X88498Y-64095D02*
X88498Y-63800D01*
X88667Y-64095D01*
X88667Y-63800D01*
X88807Y-64095D02*
X88807Y-63800D01*
X88877Y-63800D01*
X88920Y-63814D01*
X88948Y-63842D01*
X88962Y-63870D01*
X88976Y-63927D01*
X88976Y-63969D01*
X88962Y-64025D01*
X88948Y-64053D01*
X88920Y-64081D01*
X88877Y-64095D01*
X88807Y-64095D01*
X88603Y-62956D02*
X88645Y-62971D01*
X88660Y-62985D01*
X88674Y-63013D01*
X88674Y-63055D01*
X88660Y-63083D01*
X88645Y-63097D01*
X88617Y-63111D01*
X88505Y-63111D01*
X88505Y-62816D01*
X88603Y-62816D01*
X88631Y-62830D01*
X88645Y-62844D01*
X88660Y-62872D01*
X88660Y-62900D01*
X88645Y-62928D01*
X88631Y-62942D01*
X88603Y-62956D01*
X88505Y-62956D01*
X88512Y-62043D02*
X88652Y-62043D01*
X88484Y-62127D02*
X88582Y-61832D01*
X88681Y-62127D01*
X88188Y-60847D02*
X88287Y-61143D01*
X88385Y-60847D01*
X88652Y-61115D02*
X88638Y-61129D01*
X88596Y-61143D01*
X88568Y-61143D01*
X88526Y-61129D01*
X88498Y-61100D01*
X88484Y-61072D01*
X88470Y-61016D01*
X88470Y-60974D01*
X88484Y-60918D01*
X88498Y-60890D01*
X88526Y-60861D01*
X88568Y-60847D01*
X88596Y-60847D01*
X88638Y-60861D01*
X88652Y-60875D01*
X88948Y-61115D02*
X88934Y-61129D01*
X88892Y-61143D01*
X88863Y-61143D01*
X88821Y-61129D01*
X88793Y-61100D01*
X88779Y-61072D01*
X88765Y-61016D01*
X88765Y-60974D01*
X88779Y-60918D01*
X88793Y-60890D01*
X88821Y-60861D01*
X88863Y-60847D01*
X88892Y-60847D01*
X88934Y-60861D01*
X88948Y-60875D01*
G54D12*
X112711Y-71456D02*
G75*
G03X112711Y-71456I-900J0D01*
G74*
G01*
G54D13*
X101684Y-68393D02*
G75*
G03X100284Y-68390I-700J-107D01*
G74*
G01*
X100283Y-70189D02*
G75*
G03X101684Y-70191I700J107D01*
G74*
G01*
X100283Y-68399D02*
G75*
G03X100284Y-70197I8075J-891D01*
G74*
G01*
X101685Y-70180D02*
G75*
G03X101683Y-68388I-8051J888D01*
G74*
G01*
G54D14*
X110139Y-66950D02*
X110139Y-66750D01*
X110139Y-66750D02*
X109939Y-66750D01*
X109939Y-66950D02*
X109939Y-66750D01*
X110139Y-66950D02*
X109939Y-66950D01*
X110139Y-67950D02*
X110139Y-67750D01*
X110139Y-67750D02*
X109939Y-67750D01*
X109939Y-67950D02*
X109939Y-67750D01*
X110139Y-67950D02*
X109939Y-67950D01*
X110139Y-68950D02*
X110139Y-68750D01*
X110139Y-68750D02*
X109939Y-68750D01*
X109939Y-68950D02*
X109939Y-68750D01*
X110139Y-68950D02*
X109939Y-68950D01*
X110139Y-69950D02*
X110139Y-69750D01*
X110139Y-69750D02*
X109939Y-69750D01*
X109939Y-69950D02*
X109939Y-69750D01*
X110139Y-69950D02*
X109939Y-69950D01*
X110139Y-70950D02*
X110139Y-70750D01*
X110139Y-70750D02*
X109939Y-70750D01*
X109939Y-70950D02*
X109939Y-70750D01*
X110139Y-70950D02*
X109939Y-70950D01*
X110139Y-71950D02*
X110139Y-71750D01*
X110139Y-71750D02*
X109939Y-71750D01*
X109939Y-71950D02*
X109939Y-71750D01*
X110139Y-71950D02*
X109939Y-71950D01*
G54D15*
X108715Y-66491D02*
X108715Y-72091D01*
X88135Y-72091D02*
X88135Y-69791D01*
X88135Y-66491D02*
X88135Y-68791D01*
X88135Y-66491D02*
X88425Y-66491D01*
X88135Y-72091D02*
X88425Y-72091D01*
X108715Y-72091D02*
X108425Y-72091D01*
X108715Y-66491D02*
X108425Y-66491D01*
X88175Y-69791D02*
G75*
G03X88175Y-68791I0J500D01*
G74*
G01*
G54D12*
X111811Y-62047D02*
G75*
G03X111811Y-62047I-158J0D01*
G74*
G01*
X108583Y-62047D02*
G75*
G03X108583Y-62047I-158J0D01*
G74*
G01*
X111810Y-58031D02*
G75*
G03X111810Y-58031I-157J0D01*
G74*
G01*
X108583Y-58031D02*
G75*
G03X108583Y-58031I-158J0D01*
G74*
G01*
X109015Y-59448D02*
X111063Y-59448D01*
X111220Y-60039D02*
G75*
G03X111220Y-60039I-1181J0D01*
G74*
G01*
X111378Y-60039D02*
G75*
G03X111378Y-60039I-1339J0D01*
G74*
G01*
X107598Y-62637D02*
X112480Y-62637D01*
X112480Y-62637D02*
X112480Y-57441D01*
X112480Y-57441D02*
X107598Y-57441D01*
X107598Y-57441D02*
X107598Y-62637D01*
G54D16*
X97042Y-69791D02*
X95062Y-69791D01*
X95062Y-69791D02*
X95062Y-68791D01*
X95062Y-68791D02*
X97062Y-68791D01*
X97062Y-68791D02*
X97062Y-69791D01*
X97062Y-69541D02*
X96812Y-69791D01*
X92720Y-68791D02*
X94700Y-68791D01*
X94700Y-68791D02*
X94700Y-69791D01*
X94700Y-69791D02*
X92700Y-69791D01*
X92700Y-69791D02*
X92700Y-68791D01*
X92700Y-69041D02*
X92950Y-68791D01*
G54D10*
X106732Y-68818D02*
X106732Y-70157D01*
X106732Y-70157D02*
X107440Y-70157D01*
X107440Y-70157D02*
X107440Y-68818D01*
X107440Y-68818D02*
X106732Y-68818D01*
X98425Y-54133D02*
X105905Y-54133D01*
X105905Y-54133D02*
X105905Y-65157D01*
X105905Y-65157D02*
X90944Y-65157D01*
X90944Y-65157D02*
X90944Y-54133D01*
X90944Y-54133D02*
X98425Y-54133D01*
G54D13*
X89770Y-59664D02*
X90370Y-59664D01*
X90370Y-59664D02*
X90570Y-59464D01*
X88170Y-59464D02*
X88370Y-59664D01*
X88370Y-59664D02*
X88970Y-59664D01*
X90570Y-57464D02*
X90370Y-57264D01*
X90370Y-57264D02*
X89770Y-57264D01*
X88170Y-57464D02*
X88370Y-57264D01*
X88370Y-57264D02*
X88970Y-57264D01*
X88170Y-59464D02*
X88170Y-59314D01*
X88170Y-57464D02*
X88170Y-57614D01*
X90570Y-57464D02*
X90570Y-57614D01*
X90570Y-59464D02*
X90570Y-59314D01*
X90570Y-59314D02*
X90570Y-57614D01*
X88170Y-57614D02*
X88170Y-59314D01*
X89762Y-59664D02*
X88970Y-59664D01*
X89774Y-57264D02*
X88970Y-57264D01*
X89870Y-57464D02*
X89570Y-57464D01*
X89170Y-57464D02*
X88870Y-57464D01*
X89570Y-57464D02*
X89220Y-57614D01*
G54D17*
X89865Y-58464D02*
G75*
G03X89865Y-58464I-494J0D01*
G74*
G01*
G54D12*
X90270Y-55511D02*
G75*
G03X90270Y-55511I-900J0D01*
G74*
G01*
G54D18*
X99996Y-70366D02*
X99996Y-70652D01*
X99996Y-70509D02*
X99496Y-70509D01*
X99568Y-70557D01*
X99615Y-70604D01*
X99639Y-70652D01*
X99496Y-69938D02*
X99496Y-70033D01*
X99520Y-70080D01*
X99544Y-70104D01*
X99615Y-70152D01*
X99710Y-70176D01*
X99901Y-70176D01*
X99949Y-70152D01*
X99972Y-70128D01*
X99996Y-70080D01*
X99996Y-69985D01*
X99972Y-69938D01*
X99949Y-69914D01*
X99901Y-69890D01*
X99782Y-69890D01*
X99734Y-69914D01*
X99710Y-69938D01*
X99687Y-69985D01*
X99687Y-70080D01*
X99710Y-70128D01*
X99734Y-70152D01*
X99782Y-70176D01*
X99996Y-69676D02*
X99496Y-69676D01*
X99853Y-69509D01*
X99496Y-69342D01*
X99996Y-69342D01*
X99996Y-69104D02*
X99496Y-69104D01*
X99734Y-69104D02*
X99734Y-68818D01*
X99996Y-68818D02*
X99496Y-68818D01*
X99663Y-68628D02*
X99663Y-68366D01*
X99996Y-68628D01*
X99996Y-68366D01*
G54D13*
X95896Y-70315D02*
X95877Y-70334D01*
X95820Y-70353D01*
X95782Y-70353D01*
X95724Y-70334D01*
X95686Y-70296D01*
X95667Y-70258D01*
X95648Y-70181D01*
X95648Y-70124D01*
X95667Y-70048D01*
X95686Y-70010D01*
X95724Y-69972D01*
X95782Y-69953D01*
X95820Y-69953D01*
X95877Y-69972D01*
X95896Y-69991D01*
X96277Y-70353D02*
X96048Y-70353D01*
X96162Y-70353D02*
X96162Y-69953D01*
X96124Y-70010D01*
X96086Y-70048D01*
X96048Y-70067D01*
X93734Y-68515D02*
X93715Y-68534D01*
X93657Y-68553D01*
X93619Y-68553D01*
X93562Y-68534D01*
X93524Y-68496D01*
X93505Y-68458D01*
X93486Y-68381D01*
X93486Y-68324D01*
X93505Y-68248D01*
X93524Y-68210D01*
X93562Y-68172D01*
X93619Y-68153D01*
X93657Y-68153D01*
X93715Y-68172D01*
X93734Y-68191D01*
X93886Y-68191D02*
X93905Y-68172D01*
X93943Y-68153D01*
X94038Y-68153D01*
X94076Y-68172D01*
X94096Y-68191D01*
X94115Y-68229D01*
X94115Y-68267D01*
X94096Y-68324D01*
X93867Y-68553D01*
X94115Y-68553D01*
G54D10*
X107245Y-69760D02*
X107245Y-69985D01*
X107245Y-69872D02*
X106852Y-69872D01*
X106908Y-69910D01*
X106946Y-69947D01*
X106964Y-69985D01*
X106852Y-69516D02*
X106852Y-69478D01*
X106871Y-69441D01*
X106889Y-69422D01*
X106927Y-69403D01*
X107002Y-69385D01*
X107095Y-69385D01*
X107170Y-69403D01*
X107208Y-69422D01*
X107227Y-69441D01*
X107245Y-69478D01*
X107245Y-69516D01*
X107227Y-69553D01*
X107208Y-69572D01*
X107170Y-69591D01*
X107095Y-69610D01*
X107002Y-69610D01*
X106927Y-69591D01*
X106889Y-69572D01*
X106871Y-69553D01*
X106852Y-69516D01*
X107245Y-69216D02*
X106852Y-69216D01*
X107245Y-68991D02*
X107020Y-69160D01*
X106852Y-68991D02*
X107077Y-69216D01*
G54D18*
X89548Y-58845D02*
X89572Y-58774D01*
X89572Y-58655D01*
X89548Y-58607D01*
X89524Y-58583D01*
X89477Y-58559D01*
X89429Y-58559D01*
X89381Y-58583D01*
X89358Y-58607D01*
X89334Y-58655D01*
X89310Y-58750D01*
X89286Y-58797D01*
X89262Y-58821D01*
X89215Y-58845D01*
X89167Y-58845D01*
X89120Y-58821D01*
X89096Y-58797D01*
X89072Y-58750D01*
X89072Y-58631D01*
X89096Y-58559D01*
X89572Y-58083D02*
X89572Y-58369D01*
X89572Y-58226D02*
X89072Y-58226D01*
X89143Y-58274D01*
X89191Y-58321D01*
X89215Y-58369D01*
G54D19*
X89369Y-58465D02*
X89369Y-58465D01*
X89370Y-58465D02*
X89369Y-58465D01*
X89370Y-58465D02*
X89370Y-58465D01*
X89370Y-58465D02*
X89369Y-58465D01*
X89370Y-58465D01*
X89370Y-58465D02*
X89370Y-58465D01*
X89370Y-58465D01*
X89370Y-58465D01*
X89370Y-58465D01*
X89370Y-58465D01*
X89370Y-58465D01*
X89370Y-58465D01*
X89370Y-58465D01*
X89370Y-58465D01*
X89370Y-58465D01*
X89369Y-58465D01*
X89369Y-58465D01*
X89369Y-58465D01*
X89369Y-58465D01*
X89370Y-58465D01*
X89370Y-58465D02*
X89370Y-58464D01*
X89370Y-58464D02*
X89370Y-58464D01*
X89370Y-58464D01*
X89370Y-58464D01*
X89370Y-58464D01*
X89370Y-58464D01*
X89370Y-58464D01*
X89370Y-58464D01*
X89370Y-58464D01*
X89370Y-58464D01*
X89370Y-58464D01*
X89370Y-58464D01*
X89370Y-58464D01*
X89370Y-58464D01*
X89370Y-58464D01*
X89370Y-58464D01*
X89369Y-58464D01*
X89369Y-58464D01*
X89369Y-58464D01*
X89369Y-58464D01*
X89369Y-58464D02*
X89370Y-58464D01*
X89370Y-58464D01*
X89370Y-58464D01*
X89369Y-58464D01*
X89370Y-58464D02*
X89369Y-58464D01*
X89369Y-58464D02*
X89369Y-58464D01*
X89370Y-58464D02*
X89369Y-58464D01*
X89370Y-58464D02*
X89370Y-58464D01*
X89370Y-58464D01*
X89370Y-58464D01*
X89370Y-58464D01*
X89370Y-58464D01*
X89370Y-58464D01*
X89370Y-58464D01*
X89370Y-58464D01*
X89370Y-58464D01*
X89370Y-58464D01*
X89369Y-58464D01*
X89369Y-58464D01*
X89369Y-58464D01*
X89369Y-58464D01*
X89370Y-58464D01*
X89370Y-58464D02*
X89369Y-58464D01*
X89370Y-58464D02*
X89370Y-58464D01*
X89370Y-58464D02*
X89369Y-58464D01*
X89370Y-58464D02*
X89369Y-58464D01*
X89369Y-58464D01*
X89369Y-58463D01*
X89370Y-58463D01*
X89370Y-58463D01*
X89370Y-58463D01*
X89370Y-58463D01*
X89370Y-58463D01*
X89370Y-58464D01*
X89370Y-58464D01*
X89369Y-58463D02*
X89369Y-58463D01*
X89370Y-58463D02*
X89369Y-58463D01*
X89370Y-58463D02*
X89369Y-58463D01*
X89370Y-58463D02*
X89370Y-58463D01*
X89370Y-58463D02*
X89369Y-58463D01*
G54D20*
M02*
