G04 (created by PCBNEW (2013-07-07 BZR 4022)-stable) date 12/30/2013 12:35:19 AM*
%MOIN*%
G04 Gerber Fmt 3.4, Leading zero omitted, Abs format*
%FSLAX34Y34*%
G01*
G70*
G90*
G04 APERTURE LIST*
%ADD10C,0.00590551*%
%ADD11C,0.16*%
%ADD12O,0.0866X0.06*%
%ADD13C,0.074*%
%ADD14O,0.0514X0.1029*%
%ADD15R,0.06X0.06*%
%ADD16C,0.06*%
%ADD17O,0.0591X0.0787*%
%ADD18C,0.1378*%
%ADD19C,0.055*%
%ADD20C,0.05*%
%ADD21C,0.137795*%
%ADD22O,0.06X0.0866*%
%ADD23C,0.035*%
%ADD24C,0.01*%
G04 APERTURE END LIST*
G54D10*
G54D11*
X111811Y-71456D03*
G54D12*
X89566Y-61098D03*
X89566Y-62098D03*
X89566Y-63098D03*
X89566Y-64098D03*
G54D13*
X100984Y-68291D03*
X100984Y-69291D03*
X100984Y-70291D03*
X110089Y-67850D03*
X110089Y-71850D03*
X109989Y-66850D03*
X109989Y-70850D03*
X110089Y-69850D03*
X109989Y-68850D03*
G54D14*
X88925Y-72291D03*
X89925Y-72291D03*
X90925Y-72291D03*
X91925Y-72291D03*
X92925Y-72291D03*
X93925Y-72291D03*
X94925Y-72291D03*
X95925Y-72291D03*
X96925Y-72291D03*
X97925Y-72291D03*
X98925Y-72291D03*
X99925Y-72291D03*
X100925Y-72291D03*
X101925Y-72291D03*
X102925Y-72291D03*
X103925Y-72291D03*
X104925Y-72291D03*
X105925Y-72291D03*
X106925Y-72291D03*
X107925Y-72291D03*
X107925Y-66291D03*
X106925Y-66291D03*
X105925Y-66291D03*
X104925Y-66291D03*
X103925Y-66291D03*
X102925Y-66291D03*
X101925Y-66291D03*
X100925Y-66291D03*
X99925Y-66291D03*
X98925Y-66291D03*
X97925Y-66291D03*
X96925Y-66291D03*
X95925Y-66291D03*
X94925Y-66291D03*
X93925Y-66291D03*
X92925Y-66291D03*
X91925Y-66291D03*
X90925Y-66291D03*
X89925Y-66291D03*
X88925Y-66291D03*
G54D15*
X109039Y-55864D03*
G54D16*
X109039Y-54764D03*
X110039Y-55764D03*
X110039Y-54864D03*
X111039Y-55864D03*
X111039Y-54764D03*
G54D17*
X109055Y-62992D03*
X110039Y-62992D03*
X111023Y-62992D03*
G54D18*
X107598Y-60039D03*
X112480Y-60039D03*
G54D17*
X109055Y-57283D03*
X111023Y-57283D03*
G54D19*
X96562Y-69291D03*
X95562Y-69291D03*
X93200Y-69291D03*
X94200Y-69291D03*
G54D20*
X107086Y-70393D03*
X107086Y-68582D03*
G54D21*
X104921Y-64370D03*
G54D22*
X94925Y-55511D03*
X95925Y-55511D03*
X96925Y-55511D03*
X97925Y-55511D03*
X98925Y-55511D03*
X99925Y-55511D03*
X100925Y-55511D03*
X101925Y-55511D03*
G54D21*
X91929Y-64370D03*
G54D13*
X90260Y-57184D03*
X90260Y-59744D03*
X88480Y-57184D03*
X88480Y-59744D03*
G54D11*
X89370Y-55511D03*
G54D23*
X104841Y-70295D03*
X103589Y-59776D03*
G54D24*
X98925Y-66291D02*
X98925Y-66955D01*
X101890Y-54764D02*
X109039Y-54764D01*
X101375Y-55280D02*
X101890Y-54764D01*
X101375Y-55561D02*
X101375Y-55280D01*
X100925Y-55561D02*
X101375Y-55561D01*
X97925Y-72291D02*
X97925Y-71626D01*
X98925Y-66291D02*
X98925Y-65626D01*
X97750Y-65626D02*
X98925Y-65626D01*
X97425Y-65951D02*
X97750Y-65626D01*
X97425Y-67175D02*
X97425Y-65951D01*
X95742Y-68858D02*
X97425Y-67175D01*
X93633Y-68858D02*
X95742Y-68858D01*
X93200Y-69291D02*
X93633Y-68858D01*
X96062Y-69764D02*
X97925Y-71626D01*
X96062Y-69179D02*
X96062Y-69764D01*
X95742Y-68858D02*
X96062Y-69179D01*
X108629Y-68850D02*
X109989Y-68850D01*
X107086Y-70393D02*
X108629Y-68850D01*
X106859Y-70620D02*
X107086Y-70393D01*
X104706Y-70620D02*
X106859Y-70620D01*
X101631Y-67545D02*
X104706Y-70620D01*
X99514Y-67545D02*
X101631Y-67545D01*
X98925Y-66955D02*
X99514Y-67545D01*
X101501Y-66955D02*
X104841Y-70295D01*
X100754Y-66955D02*
X101501Y-66955D01*
X100425Y-66626D02*
X100754Y-66955D01*
X100425Y-65950D02*
X100425Y-66626D01*
X95065Y-60590D02*
X100425Y-65950D01*
X89325Y-60590D02*
X95065Y-60590D01*
X88480Y-59744D02*
X89325Y-60590D01*
X109055Y-62992D02*
X109500Y-62992D01*
X103925Y-72291D02*
X103925Y-71626D01*
X109500Y-63437D02*
X109500Y-62992D01*
X110611Y-64548D02*
X109500Y-63437D01*
X110611Y-72072D02*
X110611Y-64548D01*
X110310Y-72373D02*
X110611Y-72072D01*
X109654Y-72373D02*
X110310Y-72373D01*
X108907Y-71626D02*
X109654Y-72373D01*
X103925Y-71626D02*
X108907Y-71626D01*
X106116Y-59776D02*
X103589Y-59776D01*
X108609Y-57283D02*
X106116Y-59776D01*
X109055Y-57283D02*
X108609Y-57283D01*
X111023Y-57283D02*
X110627Y-57283D01*
X101925Y-55461D02*
X102375Y-55461D01*
X110583Y-55220D02*
X111039Y-54764D01*
X110583Y-57283D02*
X110583Y-55220D01*
X110583Y-57283D02*
X110627Y-57283D01*
X110185Y-57681D02*
X110583Y-57283D01*
X108959Y-56456D02*
X110185Y-57681D01*
X103370Y-56456D02*
X108959Y-56456D01*
X102375Y-55461D02*
X103370Y-56456D01*
X110185Y-62302D02*
X110039Y-62448D01*
X110185Y-57681D02*
X110185Y-62302D01*
X110039Y-62992D02*
X110039Y-62448D01*
X90260Y-57184D02*
X90260Y-59744D01*
X89616Y-64098D02*
X89616Y-64548D01*
X90021Y-64548D02*
X89616Y-64548D01*
X91495Y-66022D02*
X90021Y-64548D01*
X91495Y-68191D02*
X91495Y-66022D01*
X93032Y-69728D02*
X91495Y-68191D01*
X93763Y-69728D02*
X93032Y-69728D01*
X94200Y-69291D02*
X93763Y-69728D01*
X100260Y-69291D02*
X100984Y-69291D01*
X97925Y-66955D02*
X100260Y-69291D01*
X97925Y-66291D02*
X97925Y-66955D01*
X109461Y-71222D02*
X110089Y-71850D01*
X98494Y-71222D02*
X109461Y-71222D01*
X96562Y-69291D02*
X98494Y-71222D01*
X107086Y-67794D02*
X107086Y-68582D01*
X107925Y-66955D02*
X107086Y-67794D01*
X107925Y-66291D02*
X107925Y-66955D01*
X95562Y-70264D02*
X95562Y-69291D01*
X96925Y-71626D02*
X95562Y-70264D01*
X96925Y-72291D02*
X96925Y-71626D01*
X106925Y-65170D02*
X106925Y-66291D01*
X105138Y-63384D02*
X106925Y-65170D01*
X104016Y-63384D02*
X105138Y-63384D01*
X96375Y-55743D02*
X104016Y-63384D01*
X96375Y-55461D02*
X96375Y-55743D01*
X95925Y-55461D02*
X96375Y-55461D01*
X104990Y-65626D02*
X105925Y-65626D01*
X95375Y-56011D02*
X104990Y-65626D01*
X95375Y-55561D02*
X95375Y-56011D01*
X94925Y-55561D02*
X95375Y-55561D01*
X105925Y-66291D02*
X105925Y-65626D01*
M02*
